# xmcd
#
# Track frame offsets: 
#        150
#        1425
#        20161
#        36999
#        62491
#        90702
#        103728
#        118299
#        134314
#        157432
#        178650
#        182561
#
# Disc length: 2671 seconds
#
# Revision: 3
# Processed by: cddbd v1.5.2PL0 Copyright (c) Steve Scherf et al.
# Submitted via: ExactAudioCopyFreeDBPlugin 1.0
#
DISCID=aa0a6d0c
DTITLE=Robbie Fulks - Revenge! 2 (Sitting)
DYEAR=2007
DGENRE=Alternative
TTITLE0=Introductory Remarks By Amy Warren
TTITLE1=That's A Good Enough Reason
TTITLE2=Believe
TTITLE3=In Bristol Town One Bright Day
TTITLE4=I Wanna Be Mama'd
TTITLE5=Fake Jews Everywhere - The Death Of Enthusiasm
TTITLE6=I Like Being Left Alone
TTITLE7=Bluebirds Are Singing For Me
TTITLE8=On A Real Good Day
TTITLE9=President Garfield's Hornpipe - Suza
TTITLE10=Kelly Hogan's Looking Hot - Closing Remarks
TTITLE11=Away Out On The Old Saint Sabbath
EXTD=
EXTT0=
EXTT1=
EXTT2=
EXTT3=
EXTT4=
EXTT5=
EXTT6=
EXTT7=
EXTT8=
EXTT9=
EXTT10=
EXTT11=
PLAYORDER=
